<svg xmlns="http://www.w3.org/2000/svg" xmlns:xlink="http://www.w3.org/1999/xlink" width="216" height="51" viewBox="0 0 216 51">
    <defs>
        <path id="a" d="M5.09.772L.24 21.546c-.145.618.339 1.21.991 1.21h38.787c.475 0 .887-.322.992-.772l4.85-20.775c.145-.618-.339-1.207-.99-1.207H6.081a1.01 1.01 0 0 0-.992.77"/>
        <linearGradient id="b" x1="0%" y1="50%" y2="50%">
            <stop offset="0%" stop-color="#F8D61F"/>
            <stop offset="100%" stop-color="#EFA92E"/>
        </linearGradient>
        <path id="d" d="M5.103.772L.253 21.546c-.145.618.338 1.21.99 1.21h38.788c.474 0 .886-.322.991-.772l4.85-20.775c.145-.618-.338-1.207-.99-1.207H6.094a1.01 1.01 0 0 0-.991.77"/>
        <linearGradient id="e" x1="0%" y1="50%" y2="50%">
            <stop offset="0%" stop-color="#F8D61F"/>
            <stop offset="100%" stop-color="#EFA92E"/>
        </linearGradient>
    </defs>
    <g fill="none" fill-rule="evenodd">
        <path fill="#FFFFFE" d="M11.273 10.265h.845c1.503 0 3.133-.25 3.474-2.105.316-1.713-1.164-1.897-2.571-1.897h-.814l-.934 4.002zM4.966.775a1.02 1.02 0 0 1 1-.775h8.665c5.507 0 9.138 2.745 8.23 8.447-.782 4.7-4.256 7.628-9.043 7.628H9.913L8.49 22.22c-.106.455-.522.78-1.002.78H1.027c-.66 0-1.148-.598-1-1.225l4.939-21zM54.11 10.148h.584c1.645.077 3.34-.31 3.659-2.013.33-1.76-.837-2-2.597-2h-.71l-.936 4.013zM47.882.783c.105-.455.513-.777.983-.777h8.257c5.25-.14 9.678 2.292 8.756 8.087-.554 3.475-2.869 4.81-6.16 5.845.958.462 2.463 5.41 3.14 7.792.18.638-.304 1.27-.972 1.27H55.76c-.472 0-.88-.325-.985-.78-.427-1.887-1.507-6.545-1.747-6.557-.153-.008-.153 0-.153 0l-1.524 6.56a1.007 1.007 0 0 1-.983.777H44.01a1.003 1.003 0 0 1-.984-1.225L47.882.783zM32.445 14.668s-.15-3.628-.335-6.236l-.146.005-2.677 6.23h3.158zM25.106 23h-6.095c-.756 0-1.244-.793-.898-1.457l10.914-21C29.2.207 29.546 0 29.924 0h7.102c.504 0 .93.367 1 .86l2.964 21a1.004 1.004 0 0 1-1 1.14h-6.14c-.538 0-.98-.418-1.009-.948l-.103-1.922-5.74-.002-.962 2.26c-.157.37-.524.612-.93.612zM71.762 0h6.246a.997.997 0 0 1 .966 1.222l-4.77 21a.993.993 0 0 1-.965.778h-6.247a.999.999 0 0 1-.967-1.225l4.77-21A.991.991 0 0 1 71.763 0M139.445 42.667s-.15-3.627-.335-6.235l-.146.005-2.677 6.23h3.158zM132.106 51h-6.095a1.002 1.002 0 0 1-.898-1.46l10.914-21c.173-.332.52-.54.897-.54h7.102c.504 0 .93.367 1 .86l2.964 21a1.004 1.004 0 0 1-1 1.14h-6.14c-.538 0-.98-.417-1.009-.947l-.103-1.923-5.74-.003-.962 2.26c-.157.37-.524.613-.93.613zM100.944 28h7.496c.55 0 1.005.415 1.034.948l.6 11.122h.175c.457-1.002 4.769-9.295 5.928-11.523.176-.337.533-.547.924-.547h8.863c.663 0 1.155.593 1.01 1.218l-4.86 21a1.028 1.028 0 0 1-1.011.782h-5.348c-.663 0-1.155-.595-1.01-1.22l2.638-11.398-.201.013c-.24.662-4.977 9.72-6.2 12.057a1.04 1.04 0 0 1-.924.548h-3.557c-.55 0-1.003-.413-1.034-.943-.163-2.792-.623-10.875-.546-11.675l-2.74 11.836a1.029 1.029 0 0 1-1.01.782h-5.135c-.664 0-1.156-.595-1.01-1.22l4.908-21c.106-.457.526-.78 1.01-.78"/>
        <g transform="translate(77)">
            <mask id="c" fill="#fff">
                <use xlink:href="#a"/>
            </mask>
            <path fill="url(#b)" d="M5.09.772L.24 21.546c-.145.618.339 1.21.991 1.21h38.787c.475 0 .887-.322.992-.772l4.85-20.775c.145-.618-.339-1.207-.99-1.207H6.081a1.01 1.01 0 0 0-.992.77" mask="url(#c)"/>
        </g>
        <g transform="translate(50 28)">
            <mask id="f" fill="#fff">
                <use xlink:href="#d"/>
            </mask>
            <path fill="url(#e)" d="M5.103.772L.253 21.546c-.145.618.338 1.21.99 1.21h38.788c.474 0 .886-.322.991-.772l4.85-20.775c.145-.618-.338-1.207-.99-1.207H6.094a1.01 1.01 0 0 0-.991.77" mask="url(#f)"/>
        </g>
        <path fill="#FFFFFE" d="M151.16 28h16.859c.629 0 1.096.595.956 1.22l-1.18 5.313a.984.984 0 0 1-.96.777l-4.399-.008-3.374 14.923a.986.986 0 0 1-.956.775h-6.18c-.631 0-1.098-.6-.956-1.225l3.281-14.472-4.268.007c-.63.002-1.097-.595-.958-1.22l1.179-5.313a.984.984 0 0 1 .956-.777M194.096 28h6.584c.67 0 1.17.59 1.025 1.212l-1.504 6.538h5.39l1.692-6.975c.11-.455.536-.775 1.025-.775h6.64c.676 0 1.175.598 1.025 1.223l-5.064 21c-.11.455-.534.777-1.026.777h-6.618c-.676 0-1.176-.597-1.026-1.222l1.625-6.77-5.435-.006-1.71 7.218c-.107.455-.533.78-1.025.78h-6.642c-.676 0-1.175-.597-1.025-1.222l5.043-21c.11-.455.534-.778 1.026-.778M182.375 35.518c-.347 0-.654-.19-.85-.478-.254-.375-.728-.665-1.611-.667-2.23-.003-3.918 3.995-4.09 5.372-.198 1.573-.11 3.526 1.67 3.858.794.148 1.882-.33 2.483-1.255a.98.98 0 0 1 .832-.448l6.474.008c.64 0 1.11.592.974 1.217-.531 2.438-2.592 7.698-10.538 7.87-7.946.17-11.331-4.692-10.629-11.215.818-7.597 5.887-13.107 14.231-12.765 7.902.323 8.703 5.343 8.678 7.515a1 1 0 0 1-.998.988h-6.626"/>
    </g>
</svg>
