<?xml version="1.0" encoding="utf-8"?>
<!-- Generator: Adobe Illustrator 21.0.0, SVG Export Plug-In . SVG Version: 6.00 Build 0)  -->
<svg version="1.1" id="Слой_1" xmlns="http://www.w3.org/2000/svg" xmlns:xlink="http://www.w3.org/1999/xlink" x="0px" y="0px"
	 viewBox="0 0 191 191" style="enable-background:new 0 0 191 191;" xml:space="preserve">
<path d="M80.5,95.5H16.7c-8.8,0-16,7.2-16,16v63.9c0,8.8,7.2,16,16,16h63.9c8.8,0,16-7.2,16-16v-63.9
	C96.5,102.7,89.3,95.5,80.5,95.5z M32.6,167.3c-4.4,0-8-3.6-8-8c0-4.4,3.6-8,8-8s8,3.6,8,8C40.6,163.7,37,167.3,32.6,167.3z
	 M48.6,151.4c-4.4,0-8-3.6-8-8c0-4.4,3.6-8,8-8s8,3.6,8,8C56.6,147.8,53,151.4,48.6,151.4z M64.6,135.4c-4.4,0-8-3.6-8-8
	c0-4.4,3.6-8,8-8s8,3.6,8,8C72.6,131.8,69,135.4,64.6,135.4z"/>
<path d="M188.9,58.1L151.3,6.5C146-0.6,136.1-2.1,128.9,3L77.3,40.7c-7.1,5.2-8.7,15.2-3.5,22.3l37.7,51.6
	c5.3,7.1,15.2,8.6,22.3,3.5l51.6-37.7C192.5,75.1,194.1,65.3,188.9,58.1z M113.9,63.6c-3.6,2.6-8.6,1.8-11.2-1.7
	c-2.6-3.5-1.8-8.6,1.7-11.2c3.6-2.6,8.6-1.8,11.2,1.7C118.1,56,117.3,61,113.9,63.6z M132.6,89.3c-3.6,2.6-8.6,1.8-11.2-1.7
	c-2.6-3.6-1.8-8.6,1.7-11.2c3.6-2.6,8.6-1.8,11.2,1.7C137,81.7,136.2,86.7,132.6,89.3z M136.1,67.1c-3.6,2.6-8.6,1.8-11.2-1.7
	c-2.6-3.6-1.8-8.6,1.7-11.2c3.6-2.6,8.6-1.8,11.2,1.7C140.5,59.4,139.7,64.5,136.1,67.1z M139.6,44.7c-3.6,2.6-8.6,1.8-11.2-1.7
	c-2.6-3.6-1.8-8.6,1.7-11.2c3.6-2.6,8.6-1.8,11.2,1.7C143.9,37.1,143.2,42.1,139.6,44.7z M158.5,70.5c-3.6,2.6-8.6,1.8-11.2-1.7
	c-2.6-3.6-1.8-8.6,1.7-11.2c3.5-2.6,8.6-1.8,11.2,1.7C162.7,62.9,162,67.9,158.5,70.5z"/>
</svg>
