<?xml version="1.0" encoding="utf-8"?>
<!-- Generator: Adobe Illustrator 21.0.0, SVG Export Plug-In . SVG Version: 6.00 Build 0)  -->
<svg version="1.1" id="Слой_1" xmlns="http://www.w3.org/2000/svg" xmlns:xlink="http://www.w3.org/1999/xlink" x="0px" y="0px"
	 viewBox="0 0 11 11" style="enable-background:new 0 0 11 11;" xml:space="preserve" fill="#888888">
<style type="text/css">
	.st0{clip-path:url(#SVGID_2_);}
</style>
<g>
	<defs>
		<rect id="SVGID_1_" y="0" width="11" height="11"/>
	</defs>
	<clipPath id="SVGID_2_">
		<use xlink:href="#SVGID_1_"  style="overflow:visible;"/>
	</clipPath>
	<path class="st0" d="M8,0H3C1.4,0,0,1.4,0,3V8c0,1.7,1.4,3,3,3H8c1.7,0,3-1.4,3-3V3C11,1.4,9.7,0,8,0 M5.5,8.4
		c-1.6,0-2.8-1.3-2.8-2.8c0-1.6,1.3-2.8,2.8-2.8c1.6,0,2.8,1.3,2.8,2.8C8.4,7.1,7.1,8.4,5.5,8.4 M9,3.1C8.8,3.2,8.7,3.3,8.5,3.3
		C8.3,3.3,8.1,3.2,8,3.1C7.8,2.9,7.8,2.7,7.8,2.6c0-0.2,0.1-0.4,0.2-0.5c0.1-0.1,0.3-0.2,0.5-0.2c0.2,0,0.4,0.1,0.5,0.2
		c0.1,0.1,0.2,0.3,0.2,0.5C9.2,2.7,9.1,2.9,9,3.1"/>
	<path class="st0" d="M5.5,3.7c-1,0-1.9,0.8-1.9,1.9c0,1,0.8,1.9,1.9,1.9c1,0,1.9-0.8,1.9-1.9C7.4,4.5,6.5,3.7,5.5,3.7"/>
</g>
</svg>
