<?xml version="1.0" encoding="utf-8"?>
<!-- Generator: Adobe Illustrator 21.0.0, SVG Export Plug-In . SVG Version: 6.00 Build 0)  -->
<svg version="1.1" id="Capa_1" xmlns="http://www.w3.org/2000/svg" xmlns:xlink="http://www.w3.org/1999/xlink" x="0px" y="0px"
	 viewBox="0 0 512 512" style="enable-background:new 0 0 512 512;" xml:space="preserve">
<g>
	<g>
		<path d="M256,321.6V126.4c-5.5,0.5-11,1.4-16.6,1.6H80c-8.8,0-16,7.2-16,16v16H16c-8.8,0-16,7.2-16,16v96c0,8.8,7.2,16,16,16h48
			v16c0,8.8,7.2,16,16,16h9.7L154,491.5c3.9,10.3,12.7,17.7,23.6,19.9c2.1,0.4,4.3,0.7,6.4,0.7c8.5,0,16.7-3.4,22.5-9.5l38.4-38.1
			c9.8-9.8,12.2-25.2,5.9-37L197.1,320h42.5C245.1,320.3,250.5,321.1,256,321.6z"/>
	</g>
</g>
<g>
	<g>
		<path d="M509.4,7.7c-0.3-0.5-0.6-1-1-1.5c-1.8-2.2-4-4.1-6.7-5.1c-0.1,0-0.2-0.2-0.3-0.2c-0.3-0.1-0.6,0.1-0.9,0
			C499.1,0.5,497.6,0,496,0c-1.1,0-2,0.4-3.1,0.6c-0.6,0.1-1.2,0.2-1.8,0.4c-2.8,0.9-5.1,2.4-7,4.5c-0.1,0.1-0.3,0.2-0.4,0.3
			C433.8,66.4,364.2,106.9,288,121.8v204.5c76.2,14.8,145.8,55.3,195.6,115.9c0.1,0.2,0.4,0.2,0.5,0.4c1.1,1.2,2.5,2.2,4,3.1
			c0.5,0.3,0.9,0.7,1.3,0.9c2,0.9,4.2,1.4,6.5,1.4c1.8,0,3.6-0.3,5.4-0.9c0.1,0,0.2-0.2,0.3-0.2c2.7-1.1,4.9-2.8,6.7-5.1
			c0.4-0.5,0.7-1,1-1.5c1.5-2.5,2.6-5.2,2.6-8.3V16C512,12.9,510.9,10.2,509.4,7.7z"/>
	</g>
</g>
</svg>
