<?xml version="1.0" encoding="utf-8"?>
<!-- Generator: Adobe Illustrator 21.0.0, SVG Export Plug-In . SVG Version: 6.00 Build 0)  -->
<svg version="1.1" id="Capa_1" xmlns="http://www.w3.org/2000/svg" xmlns:xlink="http://www.w3.org/1999/xlink" x="0px" y="0px"
	 viewBox="0 0 670 792" style="enable-background:new 0 0 670 792;" xml:space="preserve">
<g>
	<path d="M395.4,792c0,0,71.9,0,71.9-72V72c0-72-71.9-72-71.9-72H71.9C71.9,0,0,0,0,72v648c0,72,71.9,72,71.9,72H395.4z M233.6,762
		c-19.8,0-35.9-16.1-35.9-35.9c0-19.8,16.1-35.9,35.9-35.9s35.9,16.1,35.9,35.9C269.6,745.9,253.5,762,233.6,762z M143.8,43.9
		c0-4.5,3.6-7.9,7.9-7.9h163.8c4.4,0,8,3.6,8,7.9V46c0,4.5-3.6,7.9-7.9,7.9H151.7c-4.3,0-7.9-3.6-7.9-7.9V43.9z M35.9,89.9h395.4
		V665H35.9V89.9z"/>
</g>
<g>
	<path d="M633.5,452c12.1-12.4,21.4-26.8,27.7-42.9c6-15.5,9-31.8,8.8-48.4c-0.2-16.7-3.6-32.8-10-48.1c-6.6-15.8-16.3-30-28.7-42
		c-12.4-12.1-26.8-21.3-42.8-27.6c-15.5-6-31.7-8.9-48.4-8.7c-16.7,0.2-32.9,3.6-48.2,10.1c-15.8,6.7-30,16.4-42.1,28.8
		c-15.1,15.5-26,34.6-31.8,55.3l-217.1,3.1c-5,0.1-9.6,3.2-11.6,8.4c-0.4,1.1-0.6,2.3-0.6,3.4l0.6,48.6c0,1.2,0.2,2.3,0.7,3.4
		c2.1,5.1,6.7,8.1,11.8,8l30.1-0.4l0.5,43.3c0,1.2,0.2,2.3,0.7,3.4c2.1,5.1,6.7,8.1,11.8,8l48-0.7c1.2,0,2.3-0.2,3.4-0.7
		c5.1-2.1,8.1-6.8,8-11.8l-0.5-42.6l115.1-1.7c6.2,20.6,17.7,39.3,33.2,54.4c12.4,12.1,26.8,21.3,42.8,27.6
		c15.5,6,31.7,8.9,48.4,8.7c16.7-0.2,32.8-3.6,48.2-10.1C607.3,474.1,621.4,464.5,633.5,452z M542.5,426.3c-17,0.2-33.1-6.2-45.2-18
		c-12.2-11.8-19-27.7-19.2-44.7c-0.2-17,6.2-33.1,18.1-45.3c11.9-12.2,27.8-19.1,44.8-19.3c17-0.2,33.1,6.2,45.2,18
		c12.2,11.8,19,27.7,19.2,44.7s-6.2,33.1-18.1,45.3C575.4,419.2,559.5,426,542.5,426.3z"/>
</g>
</svg>
