<?xml version="1.0" encoding="utf-8"?>
<!-- Generator: Adobe Illustrator 21.0.0, SVG Export Plug-In . SVG Version: 6.00 Build 0)  -->
<svg version="1.1" id="Слой_1" xmlns="http://www.w3.org/2000/svg" xmlns:xlink="http://www.w3.org/1999/xlink" x="0px" y="0px"
	 viewBox="0 0 138.6 63.4" style="enable-background:new 0 0 138.6 63.4;" xml:space="preserve">
<style type="text/css">
	.st0{clip-path:url(#SVGID_2_);fill:#F38A08;}
	.st1{clip-path:url(#SVGID_2_);fill:#DC7601;}
	.st2{clip-path:url(#SVGID_2_);fill:#D76800;}
	.st3{clip-path:url(#SVGID_2_);fill:#FFE67A;}
	.st4{clip-path:url(#SVGID_2_);fill:#FFD93B;}
	.st5{clip-path:url(#SVGID_2_);fill:#FFF2B4;}
	.st6{clip-path:url(#SVGID_2_);fill:#FDDE54;}
	.st7{clip-path:url(#SVGID_2_);fill:#BF5D00;}
	.st8{clip-path:url(#SVGID_2_);fill:#FFF3A9;}
	.st9{clip-path:url(#SVGID_2_);fill:#FFE162;}
</style>
<g>
	<defs>
		<rect id="SVGID_1_" x="0" y="0" width="138.6" height="63.4"/>
	</defs>
	<clipPath id="SVGID_2_">
		<use xlink:href="#SVGID_1_"  style="overflow:visible;"/>
	</clipPath>
	<path class="st0" d="M136.7,47.3c0.1-0.2,0.2-0.4,0.3-0.5c0.1-0.1,0.1-0.2,0.2-0.3c0.1-0.2,0.2-0.3,0.3-0.5
		c0.1-0.1,0.1-0.2,0.1-0.3c0.1-0.2,0.1-0.4,0.2-0.5c0-0.1,0.1-0.2,0.1-0.3c0.1-0.2,0.1-0.4,0.1-0.6c0-0.1,0-0.2,0.1-0.3
		c0-0.3,0.1-0.6,0.1-0.9l0.4-19.9c0,0.3,0,0.6-0.1,0.9c0,0.1,0,0.2-0.1,0.3c0,0.2-0.1,0.4-0.1,0.6c0,0.1-0.1,0.2-0.1,0.3
		c-0.1,0.2-0.1,0.4-0.2,0.5c0,0.1-0.1,0.2-0.1,0.3c-0.1,0.2-0.2,0.3-0.3,0.5c-0.1,0.1-0.1,0.2-0.2,0.3c-0.1,0.2-0.2,0.4-0.3,0.5
		c-0.1,0.1-0.1,0.2-0.2,0.3c-0.2,0.2-0.3,0.4-0.5,0.7c0,0.1-0.1,0.1-0.1,0.2c-0.2,0.3-0.5,0.5-0.8,0.8c-0.1,0.1-0.1,0.1-0.2,0.2
		c-0.2,0.2-0.4,0.4-0.7,0.6c-0.1,0.1-0.2,0.2-0.3,0.3c-0.2,0.2-0.4,0.4-0.7,0.5c-0.1,0.1-0.2,0.2-0.3,0.3c-0.3,0.2-0.6,0.4-0.9,0.6
		c-0.1,0-0.1,0.1-0.2,0.1c-0.1,0.1-0.2,0.1-0.2,0.2c-0.4,0.3-0.9,0.5-1.3,0.8c-0.2,0.1-0.4,0.2-0.5,0.3c-0.2,0.1-0.4,0.2-0.5,0.3
		l0.2-10.6v0v0c0-0.3,0-0.6-0.1-0.9c0-0.1,0-0.2-0.1-0.3c0-0.2-0.1-0.4-0.2-0.7c0-0.1-0.1-0.2-0.1-0.3c-0.1-0.3-0.2-0.5-0.3-0.8
		c0-0.1,0-0.1-0.1-0.2c-0.2-0.3-0.3-0.6-0.5-0.9c-0.1-0.1-0.1-0.2-0.2-0.2c-0.2-0.2-0.3-0.5-0.5-0.7c-0.1-0.1-0.2-0.2-0.2-0.3
		c-0.2-0.2-0.4-0.5-0.6-0.7c-0.1-0.1-0.2-0.2-0.2-0.2c0,0-0.1-0.1-0.1-0.1c-0.1-0.1-0.2-0.2-0.3-0.2c-0.3-0.3-0.6-0.6-1-0.8
		c-0.2-0.1-0.3-0.3-0.5-0.4c-0.3-0.3-0.7-0.5-1.1-0.8c-0.1-0.1-0.2-0.2-0.3-0.2c-0.1-0.1-0.2-0.1-0.3-0.2c-0.3-0.2-0.5-0.3-0.8-0.5
		c-0.3-0.2-0.5-0.3-0.8-0.5c-0.3-0.2-0.6-0.3-0.9-0.5c-0.2-0.1-0.4-0.2-0.6-0.3c-0.1-0.1-0.2-0.1-0.3-0.2c-0.2-0.1-0.5-0.2-0.7-0.4
		c-0.4-0.2-0.7-0.3-1.1-0.5c-0.3-0.1-0.5-0.2-0.8-0.4c-0.2-0.1-0.3-0.2-0.5-0.2c-0.2-0.1-0.5-0.2-0.7-0.3c-0.3-0.1-0.5-0.2-0.8-0.3
		c-0.5-0.2-1-0.4-1.4-0.5c-0.2-0.1-0.5-0.2-0.7-0.3c-0.1,0-0.1,0-0.2-0.1c-0.7-0.2-1.4-0.5-2.1-0.7c-0.1,0-0.1,0-0.2,0
		c-0.6-0.2-1.3-0.4-2-0.6c-0.2,0-0.3-0.1-0.5-0.1c-0.7-0.2-1.4-0.4-2.2-0.6c-0.2-0.1-0.5-0.1-0.7-0.2c-0.4-0.1-0.9-0.2-1.3-0.3
		c-0.1,0-0.1,0-0.2,0c-0.7-0.2-1.5-0.3-2.2-0.5c-0.1,0-0.2,0-0.3-0.1c-0.8-0.2-1.7-0.4-2.6-0.5c0,0-0.1,0-0.1,0
		c-0.2,0-0.3-0.1-0.5-0.1c-0.8-0.1-1.5-0.3-2.3-0.4c-0.3-0.1-0.6-0.1-1-0.2c-0.7-0.1-1.4-0.2-2.1-0.3c-0.2,0-0.4-0.1-0.6-0.1
		c-0.1,0-0.2,0-0.3,0c-1.2-0.2-2.5-0.3-3.8-0.5C88,4,87.7,4,87.5,4c-1.3-0.2-2.6-0.3-3.9-0.4c0,0-0.1,0-0.1,0c-0.1,0-0.2,0-0.4,0
		c-0.9-0.1-1.9-0.2-2.9-0.2c-0.3,0-0.6,0-0.9-0.1c-0.9-0.1-1.8-0.1-2.7-0.2c-0.2,0-0.4,0-0.6,0c-1.1-0.1-2.2-0.1-3.3-0.1
		c-0.3,0-0.6,0-0.8,0c-0.9,0-1.7,0-2.6-0.1c-0.3,0-0.6,0-0.9,0c-0.2,0-0.4,0-0.6,0v0v0c-0.7,0-1.4,0-2.1,0c-0.3,0-0.6,0-0.9,0
		c-1.1,0-2.3,0-3.4,0.1c-0.3,0-0.5,0-0.8,0c-0.9,0-1.8,0.1-2.6,0.1c-0.4,0-0.8,0-1.2,0.1c-0.7,0-1.5,0.1-2.2,0.1c-0.2,0-0.4,0-0.6,0
		c-0.2,0-0.4,0-0.5,0c-1.2,0.1-2.4,0.2-3.6,0.3c-0.1,0-0.2,0-0.4,0c-1.3,0.1-2.6,0.3-3.8,0.4c-0.1,0-0.3,0-0.4,0
		C45,4,44.7,4,44.5,4.1c-0.6,0.1-1.2,0.2-1.8,0.2c-0.4,0.1-0.8,0.1-1.3,0.2c-0.6,0.1-1.2,0.2-1.8,0.3c-0.3,0-0.5,0.1-0.8,0.1
		c-0.2,0-0.3,0.1-0.5,0.1C38,5,37.6,5.1,37.2,5.2c-0.5,0.1-0.9,0.2-1.4,0.3c-0.4,0.1-0.8,0.2-1.2,0.3c-0.3,0.1-0.6,0.1-0.8,0.2
		c-0.2,0-0.4,0.1-0.5,0.1c-0.3,0.1-0.7,0.2-1,0.2c-0.5,0.1-0.9,0.2-1.4,0.3c-0.3,0.1-0.7,0.2-1,0.2c-0.2,0-0.4,0.1-0.5,0.1
		c-0.3,0.1-0.6,0.2-0.9,0.2c-0.3,0.1-0.6,0.2-0.9,0.2c-0.5,0.1-1,0.3-1.5,0.4c-0.2,0.1-0.5,0.1-0.7,0.2c-0.1,0-0.1,0-0.2,0.1
		c-0.7,0.2-1.3,0.4-1.9,0.7C22.6,9,22,9.2,21.4,9.5c0,0-0.1,0-0.1,0c-0.1,0.1-0.3,0.1-0.4,0.2c-0.4,0.2-0.8,0.3-1.2,0.5
		c-0.2,0.1-0.4,0.2-0.6,0.3c-0.3,0.2-0.7,0.3-1,0.5c-0.1,0-0.2,0.1-0.2,0.1c-0.1,0.1-0.2,0.1-0.3,0.2c-0.4,0.2-0.7,0.4-1.1,0.6
		c-0.2,0.1-0.3,0.2-0.5,0.3c-0.4,0.2-0.8,0.5-1.2,0.7c-0.1,0-0.1,0.1-0.2,0.1c0,0,0,0,0,0c-0.1,0-0.1,0.1-0.2,0.1
		c-0.3,0.2-0.5,0.4-0.8,0.5c-0.1,0.1-0.2,0.1-0.3,0.2c-0.2,0.2-0.4,0.3-0.6,0.5c-0.1,0.1-0.2,0.2-0.3,0.2c-0.2,0.2-0.4,0.4-0.6,0.5
		c-0.1,0-0.1,0.1-0.2,0.1c0,0,0,0,0,0c-0.2,0.2-0.4,0.5-0.6,0.7c0,0-0.1,0.1-0.1,0.1c-0.2,0.2-0.3,0.4-0.4,0.6
		c-0.1,0.1-0.1,0.2-0.2,0.3c-0.1,0.2-0.2,0.3-0.3,0.5c-0.1,0.1-0.1,0.2-0.2,0.3c-0.1,0.2-0.2,0.3-0.2,0.5c0,0.1-0.1,0.2-0.1,0.3
		c-0.1,0.2-0.1,0.3-0.2,0.5c0,0.1-0.1,0.2-0.1,0.3c0,0.2-0.1,0.3-0.1,0.5c0,0.1,0,0.2,0,0.2c0,0.2-0.1,0.5-0.1,0.7l0,0l-0.1,4.9
		L9,31.2c0,0-0.1,0-0.1-0.1c-0.3-0.2-0.6-0.4-0.9-0.5C7.5,30.3,7,30,6.6,29.7c0,0-0.1,0-0.1-0.1c-0.4-0.3-0.9-0.6-1.2-1
		c-0.1-0.1-0.2-0.1-0.3-0.2c-0.4-0.3-0.8-0.6-1.1-1c-0.1-0.1-0.2-0.2-0.3-0.3c-0.3-0.3-0.5-0.5-0.7-0.8c-0.1-0.1-0.2-0.2-0.3-0.3
		c-0.2-0.3-0.4-0.5-0.6-0.8C2,25.2,1.9,25.1,1.9,25c-0.2-0.4-0.4-0.7-0.6-1.1c0-0.1-0.1-0.1-0.1-0.2c-0.1-0.3-0.3-0.6-0.4-0.9
		c0-0.1-0.1-0.2-0.1-0.3c-0.1-0.3-0.1-0.5-0.2-0.8c0-0.1,0-0.2-0.1-0.3c0-0.4-0.1-0.7-0.1-1.1L0,40.3c0,0.4,0,0.7,0.1,1.1
		c0,0.1,0,0.2,0.1,0.3c0,0.3,0.1,0.5,0.2,0.8c0,0.1,0.1,0.2,0.1,0.3c0.1,0.3,0.2,0.6,0.4,0.9c0,0.1,0.1,0.1,0.1,0.2
		c0.2,0.4,0.4,0.7,0.6,1.1c0.1,0.1,0.1,0.2,0.2,0.3C1.8,45.4,2,45.7,2.2,46c0.1,0.1,0.2,0.2,0.3,0.3c0.2,0.3,0.5,0.5,0.7,0.8
		c0.1,0.1,0.2,0.2,0.3,0.3c0,0,0.1,0.1,0.1,0.1c0.3,0.3,0.6,0.6,1,0.9c0.1,0.1,0.2,0.1,0.3,0.2c0.4,0.3,0.8,0.6,1.2,1
		c0,0,0,0,0.1,0.1c0.3,0.2,0.7,0.5,1,0.7c0.1,0.1,0.2,0.1,0.3,0.2c0.3,0.2,0.6,0.4,0.9,0.6c0.3,0.2,0.6,0.4,0.9,0.5
		c0.3,0.2,0.7,0.4,1,0.5c0.2,0.1,0.4,0.2,0.7,0.4c0.1,0.1,0.3,0.1,0.4,0.2c0.3,0.1,0.6,0.3,0.9,0.4c0.4,0.2,0.8,0.4,1.3,0.6
		c0.3,0.1,0.6,0.3,0.9,0.4c0.2,0.1,0.4,0.2,0.6,0.3c0.3,0.1,0.5,0.2,0.8,0.3c0.3,0.1,0.6,0.2,0.9,0.3c0.5,0.2,1.1,0.4,1.7,0.6
		c0.3,0.1,0.5,0.2,0.8,0.3c0.1,0,0.1,0.1,0.2,0.1c0.8,0.3,1.6,0.5,2.4,0.8c0.1,0,0.1,0,0.2,0.1c0.7,0.2,1.5,0.5,2.2,0.7
		c0.2,0.1,0.4,0.1,0.6,0.2c0.9,0.2,1.7,0.5,2.6,0.7c0.3,0.1,0.6,0.1,0.9,0.2c0.4,0.1,0.9,0.2,1.3,0.3c0.1,0,0.3,0.1,0.4,0.1
		c0.5,0.1,1.1,0.2,1.6,0.4c0.5,0.1,0.9,0.2,1.4,0.3c0.5,0.1,1.1,0.2,1.7,0.3c0.4,0.1,0.7,0.1,1.1,0.2c0.1,0,0.2,0,0.3,0.1
		c1,0.2,1.9,0.4,2.9,0.5c0.1,0,0.3,0.1,0.4,0.1c1.1,0.2,2.3,0.4,3.4,0.5c0.1,0,0.1,0,0.2,0c0.2,0,0.3,0,0.5,0.1
		c1.3,0.2,2.6,0.4,4,0.5c0.3,0,0.6,0.1,0.9,0.1c1.5,0.2,2.9,0.3,4.4,0.5c0.1,0,0.2,0,0.3,0c0.3,0,0.5,0,0.8,0.1
		c0.9,0.1,1.8,0.2,2.7,0.2c0.4,0,0.8,0.1,1.3,0.1c1,0.1,2,0.1,3,0.2c0.3,0,0.6,0,0.9,0.1c1.3,0.1,2.6,0.1,3.9,0.2c0.3,0,0.6,0,0.9,0
		c1,0,2,0.1,3,0.1c0.4,0,0.9,0,1.3,0c0.9,0,1.8,0,2.7,0c0.4,0,0.8,0,1.2,0c1.2,0,2.4,0,3.6-0.1c0.1,0,0.1,0,0.2,0
		c1.3,0,2.5-0.1,3.8-0.1c0.4,0,0.8,0,1.1-0.1c0.9,0,1.8-0.1,2.7-0.1c0.2,0,0.5,0,0.7,0c0.2,0,0.3,0,0.5,0c1.5-0.1,3-0.2,4.4-0.4
		c0.2,0,0.4,0,0.6-0.1c1.3-0.1,2.7-0.3,4-0.4c0.2,0,0.4,0,0.5-0.1c0.1,0,0.2,0,0.3,0c1-0.1,1.9-0.2,2.9-0.4c0.2,0,0.3,0,0.5-0.1
		c1.1-0.2,2.2-0.3,3.3-0.5c0.1,0,0.1,0,0.2,0c0.3-0.1,0.7-0.1,1-0.2c0.6-0.1,1.1-0.2,1.7-0.3c0.4-0.1,0.9-0.2,1.3-0.3
		c0.5-0.1,1.1-0.2,1.6-0.3c0.1,0,0.2,0,0.4-0.1c0.4-0.1,0.7-0.2,1.1-0.2c0.4-0.1,0.8-0.2,1.2-0.3c0.5-0.1,0.9-0.2,1.4-0.4
		c0.4-0.1,0.8-0.2,1.2-0.3c0.1,0,0.2,0,0.3-0.1c0.4-0.1,0.8-0.2,1.2-0.3c0.3-0.1,0.7-0.2,1-0.3c0.5-0.2,1-0.3,1.6-0.5
		c0.3-0.1,0.5-0.2,0.8-0.3c0,0,0.1,0,0.1,0c0.7-0.2,1.5-0.5,2.2-0.7c0.7-0.3,1.4-0.5,2-0.8c0,0,0.1,0,0.1,0c0.2-0.1,0.3-0.1,0.5-0.2
		c0.5-0.2,0.9-0.4,1.4-0.6c0.2-0.1,0.5-0.2,0.7-0.3c0.4-0.2,0.8-0.3,1.1-0.5c0.1,0,0.2-0.1,0.3-0.1c0.1-0.1,0.2-0.1,0.3-0.2
		c0.4-0.2,0.8-0.4,1.2-0.7c0.2-0.1,0.4-0.2,0.5-0.3c0.5-0.3,0.9-0.5,1.3-0.8c0.1,0,0.1-0.1,0.2-0.1c0,0,0,0,0,0
		c0.1,0,0.1-0.1,0.2-0.1c0.3-0.2,0.6-0.4,0.9-0.6c0.1-0.1,0.2-0.2,0.3-0.3c0.2-0.2,0.5-0.4,0.7-0.5c0.1-0.1,0.2-0.2,0.3-0.3
		c0.2-0.2,0.5-0.4,0.7-0.6c0.1-0.1,0.1-0.1,0.2-0.2c0,0,0,0,0,0c0.3-0.3,0.5-0.5,0.7-0.8c0.1-0.1,0.1-0.1,0.1-0.2
		c0.2-0.2,0.4-0.4,0.5-0.7C136.6,47.5,136.7,47.4,136.7,47.3 M19.3,30c0.4-0.2,0.8-0.3,1.2-0.5c0.2-0.1,0.3-0.1,0.5-0.2
		c0.6-0.2,1.2-0.5,1.8-0.7c0.7-0.2,1.4-0.5,2.1-0.7c0.2-0.1,0.5-0.1,0.7-0.2c0.5-0.2,1-0.3,1.5-0.4c0.3-0.1,0.6-0.2,0.9-0.2
		c0.5-0.1,0.9-0.3,1.4-0.4c0.3-0.1,0.7-0.2,1-0.2c0.5-0.1,0.9-0.2,1.4-0.3c0.3-0.1,0.7-0.2,1-0.2c0.5-0.1,0.9-0.2,1.4-0.3
		c0.4-0.1,0.8-0.2,1.2-0.3c0.5-0.1,0.9-0.2,1.4-0.3c0.1,0,0.3-0.1,0.4-0.1L37,32.9l0.8,0.2l-0.1,4.2c-0.3-0.1-0.7-0.1-1-0.2
		c-0.5-0.1-0.9-0.2-1.4-0.3c-0.5-0.1-1-0.2-1.5-0.4c-0.3-0.1-0.5-0.1-0.8-0.2c-0.8-0.2-1.5-0.4-2.3-0.6c-0.8-0.2-1.7-0.5-2.5-0.7
		c-0.1,0-0.1,0-0.2-0.1c-0.8-0.2-1.5-0.5-2.3-0.7c-0.2-0.1-0.5-0.2-0.7-0.3c-0.5-0.2-1-0.4-1.4-0.5c-0.3-0.1-0.5-0.2-0.8-0.3
		c-0.4-0.2-0.8-0.3-1.2-0.5c-0.3-0.1-0.5-0.2-0.8-0.4c-0.4-0.2-0.7-0.3-1.1-0.5c-0.3-0.1-0.5-0.2-0.7-0.4c-0.3-0.2-0.6-0.3-0.9-0.5
		c-0.1-0.1-0.2-0.1-0.3-0.2c0.3-0.1,0.6-0.3,0.8-0.4C18.9,30.2,19.1,30.1,19.3,30 M120.7,32.7c-0.3,0.1-0.6,0.3-0.9,0.4
		c-0.2,0.1-0.4,0.2-0.6,0.3c-0.4,0.2-0.8,0.3-1.2,0.5c-0.2,0.1-0.3,0.1-0.5,0.2c-0.6,0.2-1.2,0.5-1.8,0.7c-0.6,0.2-1.3,0.5-2,0.7
		c-0.2,0.1-0.5,0.1-0.7,0.2c-0.5,0.1-0.9,0.3-1.4,0.4c-0.3,0.1-0.6,0.2-0.9,0.2c-0.4,0.1-0.9,0.2-1.3,0.4c-0.3,0.1-0.7,0.2-1,0.3
		c-0.4,0.1-0.8,0.2-1.2,0.3c-0.4,0.1-0.7,0.2-1.1,0.2c-0.4,0.1-0.8,0.2-1.3,0.3c-0.5,0.1-0.9,0.2-1.4,0.3c-0.1,0-0.1,0-0.2,0
		l0.2-7.7h0l-0.7-0.2l0.1-3.7c0.2,0,0.3,0.1,0.5,0.1c0.5,0.1,1,0.2,1.5,0.4c0.2,0.1,0.5,0.1,0.7,0.2c0.7,0.2,1.5,0.4,2.2,0.6
		c0.8,0.2,1.7,0.5,2.5,0.7c0.1,0,0.1,0,0.2,0.1c0.8,0.2,1.5,0.5,2.3,0.7c0.2,0.1,0.5,0.2,0.7,0.3c0.5,0.2,1,0.4,1.4,0.5
		c0.3,0.1,0.5,0.2,0.8,0.3c0.4,0.2,0.8,0.3,1.2,0.5c0.3,0.1,0.5,0.2,0.8,0.4c0.4,0.2,0.7,0.3,1.1,0.5c0.3,0.1,0.5,0.2,0.7,0.4
		c0.3,0.2,0.6,0.3,0.9,0.5C120.5,32.6,120.6,32.7,120.7,32.7"/>
	<path class="st1" d="M109.6,59.1l0.4-0.1c0.2,0,1.9-0.4,2.3-0.5c0.4-0.1,0.8-0.2,1.2-0.3l0.5-0.1c0.3-0.1,0.6-0.1,0.9-0.2l0.3-0.1
		c0.3-0.1,0.5-0.1,0.8-0.2l1.4-0.4c0.5-0.1,1-0.3,1.4-0.4l1-0.3c0.7-0.2,1.5-0.5,2.2-0.7c0.4-0.1,0.7-0.3,1.1-0.4
		c-1-7-2-14.1-2.9-21.1l-0.3,0.1c-0.4,0.2-0.8,0.3-1.2,0.5l-0.5,0.2c-0.6,0.2-1.2,0.5-1.8,0.7c-0.7,0.2-1.3,0.5-2,0.7l-0.9,0.3
		c-0.4,0.1-0.8,0.2-1.2,0.4l-1,0.3c-0.4,0.1-0.8,0.2-1.2,0.3c-0.2,0.1-1.3,0.3-1.3,0.3c-0.3,0.1-0.7,0.2-1,0.2
		c-0.3,0.1-1.2,0.3-1.2,0.3c-0.4,0.1-0.8,0.2-1.2,0.3c-0.5,0.1-0.9,0.2-1.4,0.3l-1.3,0.3l0.2-8.2l-0.7-0.2l0.1-5.5l1.6,0.4
		c0.5,0.1,1,0.2,1.5,0.4l0.7,0.2c0.7,0.2,1.5,0.4,2.2,0.6c0.8,0.2,1.7,0.5,2.6,0.8l0.1,0c0.8,0.2,1.6,0.5,2.3,0.8l0.7,0.3
		c0.5,0.2,1,0.4,1.5,0.5c0.2,0.1,0.8,0.3,0.8,0.3c0.4,0.2,0.8,0.3,1.2,0.5c0.3,0.1,0.6,0.2,0.8,0.4c0.4,0.2,0.7,0.3,1.1,0.5l0.5,0.2
		c-0.8-6.3-1.4-12.6-1.8-18.8c0,0-0.1,0-0.1-0.1c-0.3-0.1-0.5-0.2-0.8-0.3l-0.5-0.2l-1.4-0.6c-0.5-0.2-0.9-0.4-1.4-0.5l-0.9-0.3
		c-0.7-0.2-1.3-0.5-2.1-0.7l-0.1,0c-0.6-0.2-1.3-0.4-2-0.6l-0.5-0.1c-0.7-0.2-1.4-0.4-2.1-0.6l-1-0.3c-0.3-0.1-0.7-0.2-1-0.3l-0.1,0
		c-0.7-0.2-1.5-0.3-2.2-0.5l-0.3-0.1c-0.8-0.2-1.7-0.4-2.5-0.5L98,6.5c-0.7-0.1-1.5-0.3-2.3-0.4l-0.9-0.2c-0.7-0.1-1.4-0.2-2-0.3
		l-0.6-0.1l-0.3,0c-1.2-0.2-2.5-0.3-3.7-0.5l-0.7-0.1c-1.3-0.2-2.6-0.3-4-0.4l-0.4,0c-0.9-0.1-1.9-0.2-2.8-0.2l-0.9-0.1
		C78.3,4.1,77.4,4,76.5,4l-0.6,0c-1.1-0.1-2.2-0.1-3.3-0.1l-0.8,0c-0.9,0-1.7,0-2.6-0.1l-1.5,0c-0.5,0-1,0-1.5,0l-1.4,0
		c-1.1,0-2.3,0-3.4,0.1l-0.8,0c-0.9,0-1.8,0.1-2.6,0.1l-1.2,0.1c-0.7,0-1.5,0.1-2.2,0.1l-0.6,0l-0.5,0c-1.2,0.1-2.4,0.2-3.6,0.3
		l-0.4,0c-1.3,0.1-2.6,0.3-3.8,0.4l-0.4,0L44.6,5c-0.6,0.1-1.2,0.2-1.8,0.2c-0.4,0.1-0.8,0.1-1.3,0.2c-0.6,0.1-1.2,0.2-1.8,0.3
		l-0.8,0.1l-0.5,0.1c-0.3,0.1-1.3,0.2-1.3,0.2c-0.5,0.1-0.9,0.2-1.4,0.3c-0.4,0.1-2.1,0.4-2.1,0.4s-1.2,0.3-1.5,0.4
		c-0.5,0.1-0.9,0.2-1.4,0.3c-0.3,0.1-1.5,0.4-1.5,0.4l-1.7,0.5c-0.5,0.1-1,0.3-1.4,0.4L25.4,9c-0.6,0.2-1.3,0.4-1.9,0.6
		c-0.6,0.2-1.2,0.4-1.8,0.7l-0.4,0.2c-0.4,0.2-0.8,0.3-1.2,0.5l-0.6,0.3c-0.3,0.1-0.6,0.3-0.9,0.4l-0.2,0.1L18,12
		c-0.4,0.2-0.7,0.4-1,0.6l-0.5,0.3c-0.4,0.2-0.8,0.5-1.1,0.7l-0.2,0.1l-0.2,0.2c-0.3,0.2-0.5,0.3-0.7,0.5l-0.1,0
		c0.2,13.3,0.9,26.5,2.6,39.6c0.1,0,0.2,0.1,0.2,0.1c0.5,0.2,1.1,0.4,1.6,0.6l1,0.4c0.8,0.3,1.5,0.5,2.4,0.8l0.1,0
		c0.7,0.2,1.5,0.4,2.2,0.7l0.6,0.2c0.8,0.2,1.7,0.5,2.6,0.7c0,0,1.9,0.5,2.2,0.5l0.4,0.1c0.5,0.1,1,0.2,1.5,0.3l0.1,0
		c0,0,1,0.2,1.4,0.3c0.5,0.1,1,0.2,1.6,0.3l1.1,0.2l0.3,0.1c1,0.2,1.9,0.4,2.9,0.5l0.4,0.1c1.1,0.2,2.3,0.4,3.4,0.5l0.7,0.1
		c1.3,0.2,2.6,0.4,3.9,0.5l0.9,0.1c1.5,0.2,2.9,0.3,4.4,0.5l0.3,0l0.8,0.1c0.9,0.1,1.8,0.2,2.7,0.2l1.3,0.1c1,0.1,2,0.1,2.9,0.2
		l0.9,0.1c1.3,0.1,2.6,0.1,3.8,0.2l0.9,0c1,0,2,0.1,3,0.1l1.3,0c0.9,0,1.8,0,2.7,0l1.2,0c1.2,0,2.4,0,3.6-0.1l0.2,0
		c1.3,0,2.5-0.1,3.8-0.1l1.1-0.1c0.9,0,1.8-0.1,2.7-0.1l0.7,0l0.5,0c1.5-0.1,3-0.2,4.4-0.3l0.6-0.1c1.3-0.1,2.7-0.3,4-0.4l0.5-0.1
		l0.3,0c1-0.1,1.9-0.2,2.8-0.4l0.5-0.1c1.1-0.2,2.2-0.3,3.3-0.5l1.5-0.3c0.5-0.1,1-0.2,1.4-0.3c0.3-0.1,1.5-0.3,1.5-0.3
		C108.7,59.2,109.1,59.2,109.6,59.1 M38,32.2l0.8,0.2l-0.1,6.1l-1.1-0.2l-1.1-0.2c-0.4-0.1-0.9-0.2-1.3-0.3c-0.5-0.1-1-0.2-1.5-0.4
		l-0.8-0.2c-0.8-0.2-1.5-0.4-2.3-0.6c-0.9-0.2-1.7-0.5-2.5-0.8l-0.1,0c-0.8-0.2-1.5-0.5-2.3-0.8l-0.7-0.3c-0.5-0.2-1-0.4-1.5-0.5
		c-0.2-0.1-0.8-0.3-0.8-0.3c-0.4-0.2-0.8-0.3-1.2-0.5c-0.3-0.1-0.6-0.2-0.8-0.4c-0.4-0.2-0.8-0.3-1.1-0.5c0,0-0.5-0.3-0.8-0.4
		c-0.3-0.1-0.6-0.3-0.9-0.5l-1.9-1l1.6-0.8c0.3-0.1,0.6-0.3,0.9-0.4c0,0,0.5-0.2,0.6-0.3c0.4-0.2,0.8-0.3,1.2-0.5l0.5-0.2
		c0.6-0.2,1.2-0.5,1.8-0.7c0.7-0.2,1.4-0.5,2.1-0.7l0.7-0.2c0.5-0.2,1-0.3,1.5-0.4l0.9-0.2c0.5-0.1,0.9-0.3,1.4-0.4
		c0.3-0.1,0.7-0.2,1-0.3c0.5-0.1,0.9-0.2,1.4-0.3c0.3-0.1,0.7-0.2,1-0.2c0.5-0.1,0.9-0.2,1.4-0.3c0.4-0.1,0.8-0.2,1.3-0.3
		c0.4-0.1,0.9-0.2,1.3-0.2l1.7-0.3L38,32.2z"/>
	<path class="st2" d="M92.3,61.6c1.3-0.1,2.7-0.3,4-0.4l0.5-0.1l0.3,0c1-0.1,1.9-0.2,2.8-0.4l0.5-0.1c1.1-0.2,2.2-0.3,3.3-0.5
		l1.5-0.3c0.5-0.1,1-0.2,1.4-0.3c0.1,0,0.3-0.1,0.6-0.1c-0.9-6.9-1.9-13.8-2.9-20.7c-0.2,0-0.4,0.1-0.6,0.1l-1.3,0.3l0.2-8.2
		l-0.7-0.2l0.1-5.5l0.4,0.1c-0.9-5.8-1.8-11.7-2.8-17.5c-0.1-0.4-0.1-0.8-0.2-1.2c-0.3-0.1-0.6-0.1-0.9-0.2L98,6.5
		c-0.7-0.1-1.5-0.3-2.3-0.4l-0.9-0.2c-0.7-0.1-1.4-0.2-2-0.3l-0.6-0.1l-0.3,0c-1.2-0.2-2.5-0.3-3.7-0.5l-0.7-0.1
		c-1.3-0.2-2.6-0.3-4-0.4l-0.4,0c-0.9-0.1-1.9-0.2-2.8-0.2l-0.9-0.1C78.3,4.1,77.4,4,76.5,4l-0.6,0c-1.1-0.1-2.2-0.1-3.3-0.1l-0.8,0
		c-0.9,0-1.7,0-2.6-0.1l-1.5,0c-0.5,0-1,0-1.5,0l-1.4,0c-1.1,0-2.3,0-3.4,0.1l-0.8,0c-0.9,0-1.8,0.1-2.6,0.1l-1.2,0.1
		c-0.7,0-1.5,0.1-2.2,0.1l-0.6,0l-0.5,0c-1.2,0.1-2.4,0.2-3.6,0.3l-0.4,0c-1.3,0.1-2.6,0.3-3.8,0.4l-0.4,0L44.6,5
		c-0.6,0.1-1.2,0.2-1.8,0.2c-0.4,0.1-0.8,0.1-1.3,0.2c-0.6,0.1-1.2,0.2-1.8,0.3l-0.8,0.1l-0.5,0.1c-0.3,0.1-1.3,0.2-1.3,0.2
		c-0.5,0.1-0.9,0.2-1.4,0.3c-0.4,0.1-2.1,0.4-2.1,0.4s-1.2,0.3-1.5,0.4c-0.5,0.1-0.9,0.2-1.4,0.3c-0.3,0.1-1.5,0.4-1.5,0.4l-1.2,0.3
		c0.3,5.8,0.7,11.7,1.4,17.4c0.2,0,0.3-0.1,0.5-0.1c0.5-0.1,0.9-0.2,1.4-0.3c0.3-0.1,0.7-0.2,1-0.2c0.5-0.1,0.9-0.2,1.4-0.3
		c0.4-0.1,0.8-0.2,1.3-0.3c0.4-0.1,0.9-0.2,1.3-0.2l1.7-0.3L38,32.2l0.8,0.2l-0.1,6.1l-1.1-0.2l-1.1-0.2c-0.4-0.1-0.9-0.2-1.3-0.3
		c-0.5-0.1-1-0.2-1.6-0.4l-0.8-0.2c-0.6-0.1-1.1-0.3-1.7-0.4c1.3,7.7,3.1,15.2,5.3,22.6c0.9,0.2,1.7,0.3,2.6,0.5l0.4,0.1
		c1.1,0.2,2.3,0.4,3.4,0.5l0.7,0.1c1.3,0.2,2.6,0.4,3.9,0.5l0.9,0.1c1.5,0.2,2.9,0.3,4.4,0.5l0.3,0l0.8,0.1c0.9,0.1,1.8,0.2,2.7,0.2
		l1.3,0.1c1,0.1,2,0.1,2.9,0.2l0.9,0.1c1.3,0.1,2.6,0.1,3.8,0.2l0.9,0c1,0,2,0.1,3,0.1l1.3,0c0.9,0,1.8,0,2.7,0l1.2,0
		c1.2,0,2.4,0,3.6-0.1l0.2,0c1.3,0,2.5-0.1,3.8-0.1l1.1-0.1c0.9,0,1.8-0.1,2.7-0.1l0.7,0l0.5,0c1.5-0.1,3-0.2,4.4-0.3L92.3,61.6z"/>
	<path class="st3" d="M23.2,8.8c21.4-7.7,59.4-8.1,85-0.9c25.6,7.2,29,19.2,7.6,26.9c-21.4,7.7-59.4,8.1-85,0.9
		C5.3,28.5,1.8,16.5,23.2,8.8"/>
	<path class="st4" d="M91.1,33.7c-11.5-2.9-21.4-9.1-30.6-16.4C56.3,14,51.3,9.7,48.4,4.6c-9.6,1-18.2,2.7-24.8,5.1
		c-8.8,3.1-13.5,7.1-13.4,11.2c0.2,5,8,10.2,20.9,13.8c11.7,3.3,26.5,5.1,41.8,5.1c12.9,0,25.2-1.3,35-3.7
		C102.3,35.8,96.6,35.1,91.1,33.7"/>
	<path class="st5" d="M16.5,6.9c24.5-8.8,68-9.2,97.3-1s33.2,22,8.7,30.8c-24.5,8.8-68,9.2-97.3,1C-4.1,29.5-8,15.7,16.5,6.9
		 M115.8,34.8c21.4-7.7,18-19.7-7.6-26.9c-25.6-7.2-63.6-6.8-85,0.9C1.8,16.5,5.3,28.5,30.8,35.7C56.4,42.9,94.4,42.5,115.8,34.8"/>
	<path class="st6" d="M114.9,9.1c8.9,3.3,14.3,7.4,15.6,11.8c0.8,2.7,0,5.4-2.3,7.8c-2.4,2.6-6.5,5-12.1,7
		c-21.5,7.7-59.8,8.1-85.5,0.9c-12-3.4-19.6-8-21.7-13c-2.3-0.1-4.6-0.2-6.9-0.4c2.2,5.1,10.7,10,23.5,13.6
		c29.1,8.2,72.5,7.7,96.8-1c6.1-2.2,10.5-4.7,13-7.5c2.1-2.3,2.9-4.6,2.2-7c-1.4-4.8-8.3-9.5-19.4-13.2C117,8.5,115.9,8.8,114.9,9.1
		"/>
	<path class="st7" d="M24.6,11.4c21.4-7.7,59.4-8.1,85-0.9c11.4,3.2,18.4,7.4,20.8,11.7c-1.1-5-8.4-10-21.5-13.7
		c-25.6-7.2-63.6-6.8-85,0.9c-11.8,4.2-16,9.8-13.1,15.2C9.7,19.9,14.2,15.1,24.6,11.4"/>
	<path class="st7" d="M70.5,15.3c9.3-1.9,19-0.5,25.7,2.6l7.8-1.4l3.1,1.7l-7.8,1.4c2.3,1.4,4.1,3,5.7,4.5l-13.3,2.2l-3.5-2l4.5-0.9
		c0.2,0,0.4-0.1,0.8-0.2c0.4-0.8-0.2-1.7-2.6-2.8c-2.7-1.3-6.8-1.9-10.4-1.2c-9.9,2,6.9,9.6-11.6,13.4c-9.8,2-20.2,0.7-27.3-2.3
		L35,31.5l-3.2-1.8l6.5-1.2c-5.4-3.1-5.8-5.6-5.8-5.6l13.9-2.2l3.3,1.9c0,0-2.8,0.6-3.6,0.8c-0.4,0-1.7,0.4-2.9,0.8
		c-0.1,0.2,0,1.5,3.9,3.5c2.5,1.2,6.5,2,10.6,1.2C68.6,26.7,51.1,19.2,70.5,15.3"/>
	<path class="st8" d="M70.5,13.3c9.3-1.9,19-0.5,25.7,2.6l7.8-1.4l3.1,1.7l-7.8,1.4c2.3,1.4,4.1,3,5.7,4.5l-13.3,2.2l-3.5-2l4.5-0.9
		c0.2,0,0.4-0.1,0.8-0.2c0.4-0.8-0.2-1.7-2.6-2.8c-2.7-1.3-6.8-1.9-10.4-1.2c-9.9,2,6.9,9.6-11.6,13.4c-9.8,2-20.2,0.7-27.3-2.3
		L35,29.5l-3.2-1.8l6.5-1.2c-5.4-3.1-5.8-5.6-5.8-5.6l13.9-2.2l3.3,1.9c0,0-2.8,0.6-3.6,0.8c-0.4,0-1.7,0.4-2.9,0.8
		c-0.1,0.2,0,1.5,3.9,3.5c2.5,1.2,6.5,2,10.6,1.2C68.6,24.7,51.1,17.2,70.5,13.3"/>
	<path class="st9" d="M75.9,24.7c-4.7-1.9-9.3-4.2-13.7-6.8c0,0.1-0.1,0.1-0.2,0.2c-0.6,1.1-0.3,2.3,0,3.5c0.4,1.3,0.8,2.7,0,4
		c-0.7,1.1-2,1.8-4.3,2.3c-1.2,0.2-2.4,0.4-3.6,0.4c-2.7,0-5.5-0.6-7.6-1.6c-4.6-2.3-4.6-4-4.4-4.7l0.2-0.5l0.5-0.2
		c0.9-0.3,2.4-0.7,3-0.8c0.2-0.1,0.6-0.1,1-0.2l-0.8-0.5l-12.2,2c0.6,0.9,2,2.3,4.8,4l2.4,1.4l-6.4,1.2l0.4,0.2l6.6-1.2l0.3,0.1
		c4.8,2,10.9,3.1,17.2,3.1c3.3,0,6.5-0.3,9.5-0.9c4.5-0.9,7.2-2.1,8.1-3.6c0.2-0.3,0.3-0.6,0.3-0.9C76.7,25,76.3,24.8,75.9,24.7"/>
</g>
</svg>
