<?xml version="1.0" encoding="utf-8"?>
<!-- Generator: Adobe Illustrator 21.0.0, SVG Export Plug-In . SVG Version: 6.00 Build 0)  -->
<svg version="1.1" id="Capa_1" xmlns="http://www.w3.org/2000/svg" xmlns:xlink="http://www.w3.org/1999/xlink" x="0px" y="0px"
	 viewBox="0 0 512 512" style="enable-background:new 0 0 512 512;" xml:space="preserve">
<style type="text/css">
	.st0{fill:#888888;}
</style>
<g>
	<g>
		<path class="st0" d="M209.5,116.4h93.1c6.3,0,11.8-2.3,16.4-6.9c4.6-4.6,6.9-10.1,6.9-16.4V23.3c0-6.3-2.3-11.8-6.9-16.4
			C314.3,2.3,308.8,0,302.5,0h-93.1c-6.3,0-11.8,2.3-16.4,6.9c-4.6,4.6-6.9,10.1-6.9,16.4v69.8c0,6.3,2.3,11.8,6.9,16.4
			C197.7,114.1,203.2,116.4,209.5,116.4z"/>
		<path class="st0" d="M365.5,425.8c-4.6-4.6-10.1-6.9-16.4-6.9h-23.3V209.5c0-6.3-2.3-11.8-6.9-16.4c-4.6-4.6-10.1-6.9-16.4-6.9
			H162.9c-6.3,0-11.8,2.3-16.4,6.9c-4.6,4.6-6.9,10.1-6.9,16.4V256c0,6.3,2.3,11.8,6.9,16.4c4.6,4.6,10.1,6.9,16.4,6.9h23.3v139.6
			h-23.3c-6.3,0-11.8,2.3-16.4,6.9c-4.6,4.6-6.9,10.1-6.9,16.4v46.5c0,6.3,2.3,11.8,6.9,16.4c4.6,4.6,10.1,6.9,16.4,6.9h186.2
			c6.3,0,11.8-2.3,16.4-6.9c4.6-4.6,6.9-10.1,6.9-16.4v-46.5C372.4,435.9,370.1,430.4,365.5,425.8z"/>
	</g>
</g>
</svg>
