<?xml version="1.0" encoding="utf-8"?>
<!-- Generator: Adobe Illustrator 21.0.0, SVG Export Plug-In . SVG Version: 6.00 Build 0)  -->
<svg version="1.1" id="Слой_1" xmlns="http://www.w3.org/2000/svg" xmlns:xlink="http://www.w3.org/1999/xlink" x="0px" y="0px"
	 viewBox="0 0 2222.9 390.6" style="enable-background:new 0 0 2222.9 390.6;" xml:space="preserve">
<style type="text/css">
	.st0{clip-path:url(#SVGID_2_);fill:#FFFFFF;}
	.st1{clip-path:url(#SVGID_4_);fill:url(#SVGID_5_);}
	.st2{clip-path:url(#SVGID_7_);fill:url(#SVGID_8_);}
	.st3{clip-path:url(#SVGID_10_);fill:#FFFFFF;}
</style>
<g>
	<defs>
		<rect id="SVGID_1_" width="2222.9" height="390.6"/>
	</defs>
	<clipPath id="SVGID_2_">
		<use xlink:href="#SVGID_1_"  style="overflow:visible;"/>
	</clipPath>
	<path class="st0" d="M37.6,6c0.8-3.5,4-6,7.6-6h65.6c41.7,0,69.2,21.3,62.3,65.7c-5.9,36.5-32.2,59.3-68.5,59.3H75.1l-10.8,47.8
		c-0.8,3.5-3.9,6.1-7.6,6.1H7.8c-5,0-8.7-4.6-7.6-9.5L37.6,6z M85.4,79.8h6.4c11.4,0,23.7-1.9,26.3-16.4
		c2.4-13.3-8.8-14.8-19.5-14.8h-6.2L85.4,79.8z"/>
	<path class="st0" d="M368.1,6.1c0.8-3.5,4-6,7.6-6h63.6c40.4-1.1,74.6,17.8,67.5,62.9c-4.3,27-22.1,37.4-47.5,45.5
		c7.4,3.6,19,42,24.2,60.6c1.4,5-2.3,9.9-7.5,9.9h-47.2c-3.6,0-6.8-2.5-7.6-6.1c-3.3-14.7-11.6-50.9-13.5-51c-1.2-0.1-1.2,0-1.2,0
		l-11.7,51c-0.8,3.5-4,6-7.6,6h-49c-5,0-8.7-4.6-7.6-9.5L368.1,6.1z M416,78.9h4.5c12.7,0.6,25.7-2.4,28.2-15.6
		c2.5-13.7-6.4-15.6-20-15.6h-5.5L416,78.9z"/>
	<path class="st0" d="M191.2,178.8h-46.9c-5.8,0-9.6-6.2-6.9-11.3l84-163.2c1.3-2.6,4-4.2,6.9-4.2H283c3.9,0,7.2,2.9,7.7,6.7
		l22.8,163.2c0.7,4.7-3,8.9-7.7,8.9h-47.3c-4.1,0-7.5-3.2-7.8-7.4l-0.8-14.9l-44.2,0l-7.4,17.6C197.1,176.9,194.3,178.8,191.2,178.8
		 M247.7,114c0,0-1.2-28.2-2.6-48.5l-1.1,0.1L223.4,114H247.7z"/>
	<path class="st0" d="M544.5,0h49c5,0,8.7,4.6,7.6,9.5l-37.4,163.2c-0.8,3.5-4,6-7.6,6h-49c-5,0-8.7-4.6-7.6-9.5L536.9,6
		C537.7,2.5,540.8,0,544.5,0"/>
</g>
<g>
	<defs>
		<path id="SVGID_3_" d="M638.4,0c-3.6,0-6.8,2.5-7.6,6.1l-37.1,163.2c-1.1,4.9,2.6,9.5,7.6,9.5h296.6c3.6,0,6.8-2.5,7.6-6.1
			L942.6,9.5C943.7,4.6,940,0,935,0H638.4z"/>
	</defs>
	<clipPath id="SVGID_4_">
		<use xlink:href="#SVGID_3_"  style="overflow:visible;"/>
	</clipPath>
	
		<linearGradient id="SVGID_5_" gradientUnits="userSpaceOnUse" x1="0" y1="390.623" x2="1" y2="390.623" gradientTransform="matrix(349.251 0 0 349.251 593.5359 -136336.0938)">
		<stop  offset="0" style="stop-color:#F1D131"/>
		<stop  offset="1" style="stop-color:#E6A833"/>
	</linearGradient>
	<rect x="592.6" y="0" class="st1" width="351.1" height="178.8"/>
</g>
<g>
	<defs>
		<path id="SVGID_6_" d="M434.4,207.9c-3.6,0-6.8,2.5-7.6,6.1l-37.1,163.2c-1.1,4.9,2.6,9.5,7.6,9.5H694c3.6,0,6.8-2.5,7.6-6.1
			l37.1-163.2c1.1-4.9-2.6-9.5-7.6-9.5H434.4z"/>
	</defs>
	<clipPath id="SVGID_7_">
		<use xlink:href="#SVGID_6_"  style="overflow:visible;"/>
	</clipPath>
	
		<linearGradient id="SVGID_8_" gradientUnits="userSpaceOnUse" x1="0" y1="390.623" x2="1" y2="390.623" gradientTransform="matrix(349.2516 0 0 349.2516 389.5738 -136128.3438)">
		<stop  offset="0" style="stop-color:#F1D131"/>
		<stop  offset="1" style="stop-color:#E6A833"/>
	</linearGradient>
	<rect x="388.7" y="207.9" class="st2" width="351.1" height="178.8"/>
</g>
<g>
	<defs>
		<rect id="SVGID_9_" width="2222.9" height="390.6"/>
	</defs>
	<clipPath id="SVGID_10_">
		<use xlink:href="#SVGID_9_"  style="overflow:visible;"/>
	</clipPath>
	<path class="st3" d="M1011.5,386.7h-46.9c-5.8,0-9.6-6.2-6.9-11.3l84-163.2c1.3-2.6,4-4.2,6.9-4.2h54.7c3.9,0,7.2,2.9,7.7,6.7
		l22.8,163.2c0.7,4.7-3,8.8-7.7,8.8h-47.3c-4.1,0-7.5-3.2-7.8-7.4l-0.8-14.9l-44.2,0l-7.4,17.6
		C1017.5,384.9,1014.6,386.7,1011.5,386.7 M1068,322c0,0-1.2-28.2-2.6-48.5l-1.1,0.1l-20.6,48.4H1068z"/>
	<path class="st3" d="M776,207.9h56.3c4.1,0,7.5,3.2,7.8,7.4l4.5,86.5h1.3c3.4-7.8,35.8-72.3,44.5-89.6c1.3-2.6,4-4.3,6.9-4.3h66.5
		c5,0,8.7,4.6,7.6,9.5l-36.5,163.2c-0.8,3.6-3.9,6.1-7.6,6.1h-40.1c-5,0-8.7-4.6-7.6-9.5l19.8-88.6l-1.5,0.1
		c-1.8,5.1-37.4,75.6-46.5,93.7c-1.3,2.6-4,4.3-6.9,4.3h-26.7c-4.1,0-7.5-3.2-7.8-7.3c-1.2-21.7-4.7-84.5-4.1-90.8l-20.6,92
		c-0.8,3.6-3.9,6.1-7.6,6.1h-38.5c-5,0-8.7-4.6-7.6-9.5L768.4,214C769.2,210.5,772.4,207.9,776,207.9"/>
	<path class="st3" d="M1155.8,207.9h133.6c5,0,8.7,4.6,7.6,9.5l-9.4,41.3c-0.8,3.5-4,6.1-7.6,6.1l-34.9-0.1l-26.7,116
		c-0.8,3.5-4,6-7.6,6h-49c-5,0-8.7-4.7-7.6-9.5l26-112.5l-33.8,0.1c-5,0-8.7-4.6-7.6-9.5l9.3-41.3
		C1149,210.5,1152.1,207.9,1155.8,207.9"/>
	<path class="st3" d="M2000.6,269.4h94.7c3.5,0,6.2,3,5.4,6.2l-6.6,27.1c-0.6,2.3-2.8,4-5.4,4l-24.7,0l-19,76.1
		c-0.6,2.3-2.8,4-5.4,4h-34.7c-3.5,0-6.2-3.1-5.4-6.3l18.4-73.8l-24,0c-3.5,0-6.2-3-5.4-6.2l6.6-27.1
		C1995.8,271,1998,269.4,2000.6,269.4"/>
	<path class="st3" d="M2217.4,269.4h-94.7c-2.6,0-4.8,1.6-5.4,4l-6.6,27.1c-0.8,3.2,1.8,6.2,5.4,6.2l24,0h25.9l-55.7,37.8
		c-1.7,1.1-4.5,3.2-6.6,5.3c-1.4,0.7-2.4,1.9-2.8,3.4l-6.6,27.1c-0.8,3.2,1.8,6.2,5.4,6.2l24,0h46l24.7,0c2.6,0,4.8-1.6,5.4-4
		l6.6-27.1c0.8-3.2-1.8-6.2-5.4-6.2h-54.1l6.8-4.5l38.5-25.2l20-13c1.9-0.5,3.5-1.9,4-3.8l6.6-27.1
		C2223.5,272.4,2220.9,269.4,2217.4,269.4"/>
	<path class="st3" d="M1494.2,207.9h48.7c5,0,8.7,4.6,7.6,9.4l-11.1,50.8h39.8l12.5-54.2c0.8-3.5,4-6,7.6-6h49.1
		c5,0,8.7,4.6,7.6,9.5l-37.4,163.2c-0.8,3.5-4,6-7.6,6H1562c-5,0-8.7-4.6-7.6-9.5l12-52.6l-40.2,0l-12.6,56.1
		c-0.8,3.5-3.9,6.1-7.6,6.1h-49.1c-5,0-8.7-4.6-7.6-9.5l37.3-163.2C1487.4,210.5,1490.6,207.9,1494.2,207.9"/>
	<path class="st3" d="M1403,270.3c-2.7,0-5.1-1.5-6.6-3.7c-2-2.9-5.7-5.2-12.6-5.2c-17.4,0-30.5,31.1-31.8,41.8
		c-1.5,12.2-0.9,27.4,13,30c6.2,1.1,14.7-2.6,19.3-9.8c1.4-2.2,3.9-3.5,6.5-3.5l50.4,0.1c5,0,8.6,4.6,7.6,9.5
		c-4.1,18.9-20.2,59.8-82,61.2c-61.9,1.3-88.2-36.5-82.8-87.2c6.4-59.1,45.8-101.9,110.8-99.2c61.5,2.5,67.8,41.5,67.6,58.4
		c-0.1,4.3-3.5,7.7-7.8,7.7H1403z"/>
	<path class="st3" d="M1770.6,311c-1.7,0-3.2-0.9-4.2-2.3c-1.3-1.8-3.6-3.3-7.9-3.3c-10.9,0-19.2,19.5-20,26.3
		c-1,7.7-0.5,17.2,8.2,18.9c3.9,0.7,9.2-1.6,12.2-6.1c0.9-1.4,2.4-2.2,4.1-2.2l31.7,0c3.1,0,5.4,2.9,4.8,6
		c-2.6,11.9-12.7,37.6-51.6,38.5c-38.9,0.8-55.5-23-52.1-54.8c4-37.2,28.8-64.1,69.7-62.4c38.7,1.6,42.6,26.1,42.5,36.8
		c0,2.7-2.2,4.8-4.9,4.8H1770.6z"/>
	<path class="st3" d="M1666.4,386.7H1644c-2.4,0-4.3-1.9-4.3-4.3l5.3-24.5c0-2.4,1.9-4.3,4.3-4.3h22.4c2.4,0,4.3,1.9,4.3,4.3
		l-5.3,24.5C1670.7,384.8,1668.8,386.7,1666.4,386.7"/>
	<path class="st3" d="M1957.6,386.7h-22.4c-2.4,0-4.3-1.9-4.3-4.3l5.3-24.5c0-2.4,1.9-4.3,4.3-4.3h22.4c2.4,0,4.3,1.9,4.3,4.3
		l-5.3,24.5C1961.9,384.8,1960,386.7,1957.6,386.7"/>
	<path class="st3" d="M1877.9,269.4c-40.9-1.7-65.7,25.3-69.7,62.4c-2.8,26,7.7,46.6,32.7,52.9c0,0,8.2,1,13.1,1.2
		c40.9,1.6,65.7-25.4,69.6-62.5c2.8-26-7.7-46.6-32.8-52.8L1877.9,269.4z M1880.8,323.6c-0.8,6.7-9.1,26.3-20,26.3
		c-1.9,0-4.7-0.4-4.7-0.4c-5.8-3.1-6-11.1-5.2-17.8c0.8-6.7,9.1-26.3,20-26.3c1.9,0,4.7,0.4,4.7,0.4
		C1881.4,309,1881.6,317,1880.8,323.6"/>
</g>
</svg>
