<?xml version="1.0" encoding="utf-8"?>
<!-- Generator: Adobe Illustrator 21.0.0, SVG Export Plug-In . SVG Version: 6.00 Build 0)  -->
<svg version="1.1" id="Слой_1" xmlns="http://www.w3.org/2000/svg" xmlns:xlink="http://www.w3.org/1999/xlink" x="0px" y="0px"
	 viewBox="0 0 1097.9 924.7" style="enable-background:new 0 0 1097.9 924.7;" xml:space="preserve">
<style type="text/css">
	.st0{clip-path:url(#SVGID_2_);}
</style>
<g>
	<defs>
		<rect id="SVGID_1_" width="1097.9" height="924.7"/>
	</defs>
	<clipPath id="SVGID_2_">
		<use xlink:href="#SVGID_1_"  style="overflow:visible;"/>
	</clipPath>
	<path class="st0" d="M208.9,10.8c1.3-5.9,6.6-10.1,12.6-10.1l109.2-0.1C400.2,0.6,446,36.1,434.6,109.9
		c-9.8,60.8-53.6,98.7-113.9,98.8l-49.2,0l-17.9,79.5c-1.3,5.9-6.6,10.1-12.6,10.1l-81.5,0.1c-8.3,0-14.5-7.7-12.6-15.8L208.9,10.8z
		 M288.6,133.5l10.7,0c18.9,0,39.5-3.3,43.8-27.3c4-22.2-14.7-24.6-32.4-24.5l-10.3,0L288.6,133.5z"/>
	<path class="st0" d="M578.6,10.5l-61.5,271.8c-1.8,8.1,4.3,15.8,12.6,15.8l493.7-0.4c6,0,11.3-4.2,12.6-10.1l61.5-271.8
		c1.8-8.1-4.3-15.8-12.6-15.8L591.3,0.4C585.2,0.4,580,4.6,578.6,10.5"/>
	<path class="st0" d="M126.8,357L65.3,628.8c-1.8,8.1,4.3,15.8,12.6,15.8l493.7-0.4c6,0,11.3-4.2,12.6-10.1l61.5-271.8
		c1.8-8.1-4.3-15.8-12.6-15.8l-493.7,0.4C133.3,346.9,128.1,351.1,126.8,357"/>
	<path class="st0" d="M694.9,346.5l93.7-0.1c6.9,0,12.6,5.4,12.9,12.3l7.6,143.9l2.2,0c5.7-13,59.5-120.3,73.9-149.1
		c2.2-4.4,6.7-7.1,11.5-7.1l110.8-0.1c8.3,0,14.4,7.7,12.6,15.8l-60.5,271.8c-1.3,5.9-6.6,10.1-12.6,10.1l-66.8,0.1
		c-8.3,0-14.4-7.7-12.6-15.8l32.8-147.5l-2.5,0.2c-3,8.6-62.1,125.8-77.4,156.1c-2.2,4.4-6.7,7.1-11.5,7.1l-44.4,0
		c-6.9,0-12.5-5.3-12.9-12.2c-2.1-36.1-7.9-140.7-6.9-151.1L710.6,634c-1.3,5.9-6.6,10.1-12.6,10.1l-64.2,0.1
		c-8.3,0-14.5-7.7-12.6-15.8l61.1-271.8C683.6,350.7,688.9,346.5,694.9,346.5"/>
	<path class="st0" d="M587.6,743.5l145.8-0.1c5.4,0,9.5,4.7,8.3,9.6l-10.2,41.7c-0.9,3.6-4.3,6.1-8.3,6.1l-38.1,0l-29.1,117.3
		c-0.9,3.6-4.3,6.1-8.3,6.1l-53.5,0c-5.5,0-9.5-4.7-8.3-9.6l28.3-113.7l-36.9,0.1c-5.4,0-9.5-4.7-8.3-9.6l10.2-41.7
		C580.2,746.1,583.6,743.5,587.6,743.5"/>
	<path class="st0" d="M921.4,743.3l-145.8,0.1c-4,0-7.4,2.5-8.3,6.1l-10.2,41.7c-1.2,4.9,2.9,9.6,8.3,9.6l36.9-0.1l39.9,0
		c0,0-84.2,56.9-92.2,63c-3,2-6,4-7.9,8.7l-10.2,41.7c-1.2,4.9,2.9,9.6,8.3,9.6l36.9-0.1l70.8-0.1l38.1,0c4,0,7.4-2.5,8.3-6.1
		l9.7-42c1.2-4.9-2.4-9.4-7.8-9.4l-83.3,0.1l10.5-6.9l59.2-38.8l30.7-20.1c4.5-2.9,7.5-4.9,9.5-8.9l9-38
		C933.1,748.6,926.8,743.3,921.4,743.3"/>
	<path class="st0" d="M216.5,808c-2.6,0-4.9-1.4-6.4-3.6c-1.9-2.8-5.5-5-12.2-5c-16.8,0-29.5,30.1-30.8,40.5
		c-1.5,11.8-0.8,26.5,12.6,29c6,1.1,14.2-2.5,18.7-9.5c1.4-2.1,3.7-3.4,6.3-3.4l48.8,0c4.8,0,8.4,4.5,7.3,9.2
		c-4,18.4-19.5,58-79.4,59.3c-59.9,1.3-85.5-35.3-80.2-84.4c6.1-57.2,44.3-98.7,107.3-96.2c59.6,2.4,65.7,40.2,65.5,56.5
		c0,4.1-3.4,7.4-7.5,7.4L216.5,808z"/>
	<path class="st0" d="M49.6,924.7l-41.6,0c-4.4,0-7.9-3.5-7.9-7.9l9.9-45.6c0-4.4,3.5-7.9,7.9-7.9l41.6,0c4.4,0,7.9,3.5,7.9,7.9
		l-9.9,45.6C57.5,921.1,53.9,924.7,49.6,924.7"/>
	<path class="st0" d="M515.8,924.3l-41.6,0c-4.4,0-7.9-3.5-7.9-7.9l9.9-45.6c0-4.4,3.5-7.9,7.9-7.9l41.6,0c4.4,0,7.9,3.5,7.9,7.9
		l-9.9,45.6C523.7,920.7,520.2,924.3,515.8,924.3"/>
	<path class="st0" d="M381.7,743.8c-62.9-2.5-101.1,39-107.3,96.2c-4.3,40,11.9,71.7,50.4,81.4c0,0,12.7,1.5,20.1,1.8
		c62.9,2.4,101.1-39.1,107.1-96.4c4.2-40-12-71.7-50.5-81.3L381.7,743.8z M386.3,827.3c-1.3,10.4-13.9,40.5-30.8,40.5
		c-2.9,0-7.2-0.6-7.2-0.6c-8.9-4.7-9.2-17.1-8-27.4c1.3-10.4,14-40.5,30.8-40.5c2.9,0,7.2,0.7,7.2,0.7
		C387.2,804.7,387.6,817,386.3,827.3"/>
</g>
</svg>
