<?xml version="1.0" encoding="utf-8"?>
<!-- Generator: Adobe Illustrator 21.0.0, SVG Export Plug-In . SVG Version: 6.00 Build 0)  -->
<svg version="1.1" id="Слой_1" xmlns="http://www.w3.org/2000/svg" xmlns:xlink="http://www.w3.org/1999/xlink" x="0px" y="0px"
	 viewBox="0 0 13.6 11.1" style="enable-background:new 0 0 13.6 11.1;" xml:space="preserve" fill="#888888">
<style type="text/css">
	.st0{clip-path:url(#SVGID_2_);}
</style>
<g>
	<defs>
		<rect id="SVGID_1_" y="0" width="13.6" height="11.1"/>
	</defs>
	<clipPath id="SVGID_2_">
		<use xlink:href="#SVGID_1_"  style="overflow:visible;"/>
	</clipPath>
	<path class="st0" d="M13.6,1.3c-0.5,0.2-1,0.4-1.6,0.4c0.6-0.3,1-0.9,1.2-1.5c-0.5,0.3-1.1,0.6-1.8,0.7C10.9,0.3,10.2,0,9.4,0
		C7.9,0,6.6,1.2,6.6,2.8c0,0.2,0,0.4,0.1,0.6C4.4,3.3,2.3,2.2,0.9,0.5C0.7,0.9,0.6,1.4,0.6,1.9c0,1,0.5,1.8,1.2,2.3
		c-0.5,0-0.9-0.1-1.3-0.3v0c0,1.4,1,2.5,2.2,2.7C2.6,6.7,2.3,6.8,2.1,6.8c-0.2,0-0.4,0-0.5-0.1c0.4,1.1,1.4,1.9,2.6,1.9
		C3.2,9.4,2,9.8,0.7,9.8c-0.2,0-0.4,0-0.7,0c1.2,0.8,2.7,1.3,4.3,1.3c5.1,0,7.9-4.3,7.9-7.9l0-0.4C12.8,2.4,13.2,1.9,13.6,1.3"/>
</g>
</svg>
